<svg width="240" height="60" viewBox="0 0 240 60" fill="none" xmlns="http://www.w3.org/2000/svg">
    <rect x="0" y="0" width="240" height="60" rx="4" fill="#E60023"/> <rect x="0" y="0" width="60" height="60" rx="4" fill="#003366"/> <path d="M30.413 14.8696C27.9942 14.8696 26.0694 15.6563 24.6385 17.2298C23.2076 18.8033 22.4921 20.9009 22.4921 23.5226C22.4921 26.1558 23.2076 28.2534 24.6385 29.8269C26.0694 31.4004 27.9942 32.1872 30.413 32.1872C31.5471 32.1872 32.5539 31.9688 33.4334 31.5319C34.3129 31.095 34.9566 30.4907 35.3646 29.719C35.7726 28.9474 35.9766 28.0583 35.9766 27.0519L35.9766 23.5226C35.9766 20.9009 35.7726 18.8033 35.3646 17.2298C34.9566 15.6563 34.3129 14.8696 33.4334 14.8696C32.5539 14.4327 31.5471 14.2142 30.413 14.2142ZM30.413 16.2941C31.2585 16.2941 31.9739 16.5901 32.5592 17.1822C33.1446 17.7743 33.4373 18.5204 33.4373 19.4182C33.4373 20.2526 33.1446 20.9572 32.5592 21.5323C31.9739 22.1074 31.2585 22.3949 30.413 22.3949C29.5674 22.3949 28.8521 22.1074 28.2667 21.5323C27.6814 20.9572 27.3887 20.2526 27.3887 19.4182C27.3887 18.5204 27.6814 17.7743 28.2667 17.1822C28.8521 16.5901 29.5674 16.2941 30.413 16.2941Z" fill="white"/>

    <text x="70" y="40" font-family="Arial, sans-serif" font-size="28" fill="white" font-weight="bold">DURO PISOS S.R.L.</text>
</svg>